<svg width="68" height="71" viewBox="0 0 68 71" fill="none" xmlns="http://www.w3.org/2000/svg">
<g clip-path="url(#clip0_7011_137)">
<path d="M1433 94.989C1433 94.9951 1433 95 1432.99 95C1432.98 95 1432.98 94.9953 1432.98 94.9894C1432.45 81.6509 1421.47 71 1408 71H1149.52C1144.45 71 1140.3 67.1673 1138.81 62.3261C1132.54 41.8724 1113.51 27 1091 27H64C41.4921 27 22.4586 41.8724 16.1889 62.3261C14.705 67.1673 10.5457 71 5.48212 71H-462C-475.469 71 -486.448 81.6509 -486.978 94.9894C-486.978 94.9953 -486.983 95 -486.989 95C-486.995 95 -487 94.9951 -487 94.989V10C-487 4.47715 -482.523 0 -477 0H1423C1428.52 0 1433 4.47715 1433 10V94.989Z" fill="#7027E2"/>
</g>
<defs>
<clipPath id="clip0_7011_137">
<rect width="68" height="71" fill="white"/>
</clipPath>
</defs>
</svg>
