<svg width="25" height="24" viewBox="0 0 25 24" fill="none" xmlns="http://www.w3.org/2000/svg">
<g clip-path="url(#clip0_7011_137)">
<path d="M1920 23.989C1920 23.9951 1920 24 1919.99 24C1919.98 24 1919.98 23.9953 1919.98 23.9894C1919.45 10.6509 1908.47 0 1895 0H1636.52C1631.45 0 1627.3 -3.83269 1625.81 -8.67389C1619.54 -29.1276 1600.51 -44 1578 -44H551C528.492 -44 509.459 -29.1276 503.189 -8.67388C501.705 -3.83268 497.546 0 492.482 0H25C11.5314 0 0.55223 10.6509 0.0219028 23.9894C0.0216691 23.9953 0.0168353 24 0.0109534 24C0.00490401 24 0 23.9951 0 23.989V-61C0 -66.5228 4.47715 -71 10 -71H1910C1915.52 -71 1920 -66.5228 1920 -61V23.989Z" fill="#7027E2"/>
</g>
<defs>
<clipPath id="clip0_7011_137">
<rect width="25" height="24" fill="white"/>
</clipPath>
</defs>
</svg>
