<svg width="25" height="24" viewBox="0 0 25 24" fill="none" xmlns="http://www.w3.org/2000/svg">
<g clip-path="url(#clip0_7011_137)">
<path d="M-1895 23.989C-1895 23.9951 -1895 24 -1894.99 24C-1894.98 24 -1894.98 23.9953 -1894.98 23.9894C-1894.45 10.6509 -1883.47 0 -1870 0H-1611.52C-1606.45 0 -1602.3 -3.83269 -1600.81 -8.67389C-1594.54 -29.1276 -1575.51 -44 -1553 -44H-526C-503.492 -44 -484.459 -29.1276 -478.189 -8.67388C-476.705 -3.83268 -472.546 0 -467.482 0H0C13.4686 0 24.4478 10.6509 24.9781 23.9894C24.9783 23.9953 24.9832 24 24.989 24C24.9951 24 25 23.9951 25 23.989V-61C25 -66.5228 20.5228 -71 15 -71H-1885C-1890.52 -71 -1895 -66.5228 -1895 -61V23.989Z" fill="#7027E2"/>
</g>
<defs>
<clipPath id="clip0_7011_137">
<rect width="25" height="24" fill="white" transform="matrix(-1 0 0 1 25 0)"/>
</clipPath>
</defs>
</svg>
