<svg width="68" height="71" viewBox="0 0 68 71" fill="none" xmlns="http://www.w3.org/2000/svg">
<g clip-path="url(#clip0_7011_137)">
<path d="M-1365 94.989C-1365 94.9951 -1365 95 -1364.99 95C-1364.98 95 -1364.98 94.9953 -1364.98 94.9894C-1364.45 81.6509 -1353.47 71 -1340 71H-1081.52C-1076.45 71 -1072.3 67.1673 -1070.81 62.3261C-1064.54 41.8724 -1045.51 27 -1023 27H4C26.5079 27 45.5414 41.8724 51.8111 62.3261C53.295 67.1673 57.4543 71 62.5179 71H530C543.469 71 554.448 81.6509 554.978 94.9894C554.978 94.9953 554.983 95 554.989 95C554.995 95 555 94.9951 555 94.989V10C555 4.47715 550.523 0 545 0H-1355C-1360.52 0 -1365 4.47715 -1365 10V94.989Z" fill="#7027E2"/>
</g>
<defs>
<clipPath id="clip0_7011_137">
<rect width="68" height="71" fill="white" transform="matrix(-1 0 0 1 68 0)"/>
</clipPath>
</defs>
</svg>
