<svg width="22" height="12" viewBox="0 0 22 12" fill="none" xmlns="http://www.w3.org/2000/svg">
<path d="M6.21739 8.5C6.21739 9.88071 7.38534 11 8.82609 11C10.2668 11 11.4348 9.88071 11.4348 8.5C11.4348 7.11929 10.2668 6 8.82609 6C7.38534 6 6.21739 7.11929 6.21739 8.5ZM6.21739 8.5V3.5C6.21739 2.83696 6.49223 2.20107 6.98146 1.73223C7.47068 1.26339 8.13422 1 8.82609 1H10.5652M1 11C1 11 1 4.90524 1 1M15.7826 6H18.3913M21 6H18.3913M18.3913 3.5V6M18.3913 8.5V6" stroke="white" stroke-width="2" stroke-linecap="round" stroke-linejoin="round"/>
</svg>
