<svg width="26" height="27" viewBox="0 0 26 27" fill="none" xmlns="http://www.w3.org/2000/svg">
<path d="M18.3335 8.24255V3.57675C18.3335 2.46777 18.3335 1.91328 18.0998 1.57251C17.8957 1.27479 17.5796 1.07254 17.2238 1.01199C16.8165 0.94268 16.313 1.17505 15.3061 1.63978L3.47881 7.09854C2.5808 7.51301 2.13179 7.72024 1.80293 8.04164C1.5122 8.32577 1.29028 8.67262 1.15413 9.05566C1.00012 9.48893 1.00012 9.98346 1.00012 10.9725V17.5759M19.0001 16.9092H19.0135M1.00012 12.5092L1.00012 21.3092C1.00012 22.8027 1.00012 23.5494 1.29077 24.1199C1.54643 24.6216 1.95438 25.0296 2.45615 25.2852C3.02658 25.5759 3.77332 25.5759 5.26679 25.5759H20.7335C22.2269 25.5759 22.9737 25.5759 23.5441 25.2852C24.0459 25.0296 24.4538 24.6216 24.7095 24.1199C25.0001 23.5494 25.0001 22.8027 25.0001 21.3092V12.5092C25.0001 11.0157 25.0001 10.269 24.7095 9.69858C24.4538 9.19681 24.0459 8.78886 23.5441 8.5332C22.9737 8.24255 22.2269 8.24255 20.7335 8.24255L5.26679 8.24255C3.77332 8.24255 3.02658 8.24255 2.45615 8.5332C1.95438 8.78886 1.54643 9.19681 1.29077 9.69857C1.00012 10.269 1.00012 11.0157 1.00012 12.5092ZM19.6668 16.9092C19.6668 17.2774 19.3683 17.5759 19.0001 17.5759C18.6319 17.5759 18.3335 17.2774 18.3335 16.9092C18.3335 16.541 18.6319 16.2425 19.0001 16.2425C19.3683 16.2425 19.6668 16.541 19.6668 16.9092Z" stroke="white" stroke-width="2" stroke-linecap="round" stroke-linejoin="round"/>
</svg>
