<svg width="32" height="19" viewBox="0 0 32 19" fill="none" xmlns="http://www.w3.org/2000/svg">
<path d="M26.4427 11.4595C26.1061 11.0028 26.0307 10.5405 26.2146 10.0721C26.6736 8.8223 33.3584 0.88457 30.5736 0.88457C28.66 0.910003 26.3587 0.88457 24.5241 0.88457C24.1835 0.967471 23.9632 1.14621 23.8253 1.50986C22.7525 3.98354 21.4397 7.0023 19.5157 8.94242C19.2626 9.14649 19.1048 9.1378 18.8164 9.06233C17.4668 7.64147 18.9059 2.77356 18.0852 0.850078C17.9234 0.473571 17.5694 0.303514 17.2071 0.207754C15.3748 -0.228919 11.1901 0.0310026 10.5073 0.910003C10.3122 1.16128 10.2849 1.29841 10.4258 1.32096C11.0764 1.4236 11.5369 1.66912 11.808 2.05729C12.3193 3.18338 12.6962 9.18188 11.1901 9.18188C9.68408 9.18188 7.25552 3.295 6.58834 1.66306C6.4108 1.17169 5.95884 0.889983 5.48261 0.806828L1.02702 0.840901C0.243839 0.840901 -0.193868 1.22724 0.0837236 2.00558C2.40438 7.76608 7.48278 18.9319 15.2717 18.6523C16.052 18.6523 17.3943 18.9519 18.0037 18.2754C18.8412 17.1644 17.8198 15.1857 19.2559 14.4311C19.618 14.2384 19.9934 14.3999 20.3045 14.6368C21.9018 15.8531 22.7499 17.9878 24.7197 18.6359C25.066 18.75 25.3695 18.7785 25.63 18.7215L29.7928 18.6531C30.5656 18.6531 31.3269 18.3092 31.167 17.3853C30.5601 15.4039 28.1418 13.3672 26.4427 11.4595Z" fill="#7027E2"/>
</svg>
